# xmcd
# 
# Track frame offsets:
#     150
#     13812
#     48777
#     76402
#     93325
#     97722
#     125970
#     146925
#     150710
#     176565
#     182455
#     228145
#     231147
#     255925
#     306412
# 
# Disc length: 4289
# 
# Revision: 1
# Processed by: cddbd v1.5.2PL0 Copyright (c) Steve Scherf et al.
# Submitted via: BonkEnc v1.0.8
# 
DISCID=b710bf0f
DTITLE=Tom Varner - Martian Heartache
DYEAR=1996
DGENRE=Contemporary Jazz
TTITLE0=Nuke 'Em Tony
TTITLE1=Keep It Up
TTITLE2=Martian Affirmation
TTITLE3=Yenus With A Syringe
TTITLE4=Precarious Dog
TTITLE5=Isaac Has A Vision On The Subway
TTITLE6=The Quick And The Dead
TTITLE7=Send Me A Probe
TTITLE8=Tough Luck
TTITLE9=Betsy Says Yes
TTITLE10=Eva Etc.
TTITLE11=Anxiety All The Time
TTITLE12=Learn Something !
TTITLE13=Small Cry Big Laugh
TTITLE14=Lady Gay
EXTD=YEAR: 1997
EXTT0=
EXTT1=
EXTT2=
EXTT3=
EXTT4=
EXTT5=
EXTT6=
EXTT7=
EXTT8=
EXTT9=
EXTT10=
EXTT11=
EXTT12=
EXTT13=
EXTT14=
PLAYORDER=
